<?xml version="1.0" encoding="UTF-8" standalone="no"?>
<!-- Created with Inkscape (http://www.inkscape.org/) -->

<svg
   width="122.38578mm"
   height="58.900402mm"
   viewBox="0 0 122.38578 58.900402"
   version="1.1"
   id="svg2416"
   xml:space="preserve"
   inkscape:version="1.2.2 (b0a8486541, 2022-12-01)"
   sodipodi:docname="dan-walking.svg"
   xmlns:inkscape="http://www.inkscape.org/namespaces/inkscape"
   xmlns:sodipodi="http://sodipodi.sourceforge.net/DTD/sodipodi-0.dtd"
   xmlns="http://www.w3.org/2000/svg"
   xmlns:svg="http://www.w3.org/2000/svg"><sodipodi:namedview
     id="namedview2418"
     pagecolor="#969696"
     bordercolor="#000000"
     borderopacity="0.25"
     inkscape:showpageshadow="2"
     inkscape:pageopacity="0"
     inkscape:pagecheckerboard="0"
     inkscape:deskcolor="#d1d1d1"
     inkscape:document-units="mm"
     showgrid="false"
     inkscape:zoom="0.914906"
     inkscape:cx="219.1482"
     inkscape:cy="317.51896"
     inkscape:window-width="1452"
     inkscape:window-height="1233"
     inkscape:window-x="1034"
     inkscape:window-y="968"
     inkscape:window-maximized="0"
     inkscape:current-layer="layer3" /><defs
     id="defs2413" /><g
     inkscape:groupmode="layer"
     id="layer3"
     inkscape:label="Layer 2"
     transform="translate(-43.154809,-87.383294)"><path
       style="fill:none;stroke:#000000;stroke-width:3;stroke-linecap:round;stroke-linejoin:round;stroke-opacity:1;paint-order:stroke fill markers"
       d="M 164.04059,140.77364 44.654809,140.8823"
       id="path2604" /></g><g
     inkscape:label="Layer 1"
     inkscape:groupmode="layer"
     id="layer1"
     transform="translate(-43.154809,-87.383294)"><g
       id="g2189"
       transform="translate(70.438075,-135.95256)"><path
         style="fill:#ffffff;fill-opacity:1;stroke-width:0.0837957"
         d="m 59.660996,282.18211 c -3.93693,-0.58471 -7.94312,-1.07248 -11.89192,-0.34211 -3.62716,0.44018 -7.2244,-0.43578 -10.73479,-1.21862 -4.28294,-0.23023 -8.74046,0.932 -12.90123,-0.52557 -3.11373,-1.39963 -6.080859,-4.10643 -6.142965,-7.76912 -0.0839,-6.65946 5.863295,-12.55707 12.363085,-13.21417 2.54723,-0.47664 5.36955,0.47185 7.4334,1.34508 4.01017,-2.23911 9.05528,-2.56335 13.31986,-0.93574 2.28062,1.99906 3.19722,-2.2581 3.55932,-3.89832 0.63304,-5.83709 -0.82644,-11.73154 0.20252,-17.56538 0.66153,-5.38893 3.40026,-10.92779 8.55098,-13.27866 5.33405,-2.50242 12.1454,-1.69838 16.715407,1.99898 2.73999,2.48379 3.753478,6.15356 4.356698,9.62463 0.63546,6.31823 -1.02762,12.54789 -1.510228,18.82099 -0.65978,7.17044 -0.8322,14.98288 -5.27045,21.02517 -3.217377,4.49004 -8.939637,6.13363 -14.236927,5.97523 -1.27064,0.0124 -2.54434,0.0314 -3.81276,-0.0424 z"
         id="path302-3-6-5" /><path
         style="fill:#000000;stroke-width:0.0837957"
         d="m 59.660993,282.18211 c -3.93693,-0.58471 -7.94312,-1.07248 -11.89192,-0.34211 -3.62716,0.44018 -7.224405,-0.43578 -10.734794,-1.21862 -4.282942,-0.23023 -8.740463,0.932 -12.901227,-0.52557 -3.113729,-1.39963 -6.080863,-4.10643 -6.142969,-7.76912 -0.0839,-6.65946 5.863291,-12.55707 12.363085,-13.21417 2.547227,-0.47664 5.369555,0.47185 7.433404,1.34508 4.010171,-2.23911 9.055281,-2.56335 13.319861,-0.93574 2.28062,1.99906 3.19722,-2.2581 3.55932,-3.89832 0.63304,-5.83709 -0.82644,-11.73154 0.20252,-17.56538 0.66153,-5.38893 3.40026,-10.92779 8.55098,-13.27866 5.33405,-2.50242 12.1454,-1.69838 16.71541,1.99898 2.73999,2.48379 3.75348,6.15356 4.3567,9.62463 0.63546,6.31823 -1.02762,12.54789 -1.51023,18.82099 -0.65978,7.17044 -0.8322,14.98288 -5.27045,21.02517 -3.21738,4.49004 -8.93964,6.13363 -14.23693,5.97523 -1.27064,0.0124 -2.54434,0.0314 -3.81276,-0.0424 z m 4.0222,-1.69979 c 4.43799,-0.13685 9.34804,-1.04347 12.17561,-4.83085 1.43294,-1.66283 3.0783,-4.8459 3.06721,-6.43399 -5.39717,3.6641 -12.55004,3.02805 -18.4481,1.00842 -1.88766,-0.89589 -5.1058,-2.06296 -5.44083,-4.09469 2.72523,1.2144 5.38359,2.7353 8.35283,3.41495 5.0473,1.12911 10.96785,1.3214 15.32583,-1.87726 2.09188,-1.96629 1.55935,-5.28457 2.05496,-7.91627 -0.11961,-2.09822 1.89387,-6.91558 -1.73715,-4.46022 -6.40083,1.92178 -13.37731,1.08995 -19.62043,-1.01689 -1.90479,-1.31445 -3.21518,-1.35126 -2.8916,1.22199 -0.0378,3.25394 -2.89283,5.06495 -4.16054,7.74679 -1.64959,4.42923 -2.22569,9.85873 0.3566,14.04778 2.26773,3.18708 6.66867,3.2914 10.22124,3.22329 l 0.37851,-0.0146 0.36578,-0.0185 z m -16.005,-0.43117 c 2.07713,-0.35685 6.06099,-0.25599 3.22487,-2.81601 -2.13153,-4.40053 -1.82639,-9.77214 0.004,-14.22086 2.12026,-2.88017 -3.86257,-2.49899 -5.746579,-2.76427 -3.573923,-0.0564 -7.733883,1.06638 -9.276829,4.63998 -1.796449,3.92155 -2.765291,9.24608 0.354275,12.77859 2.69369,2.37285 6.629822,2.67469 10.068457,2.55642 0.458286,-0.0507 0.915246,-0.11232 1.372156,-0.17385 z m -16.046905,-1.07063 c 1.655541,-0.18058 4.647034,-0.17994 2.278335,-2.19999 -2.03939,-4.06939 -1.238247,-9.11843 0.851885,-13.00148 1.261013,-1.48692 2.451713,-2.80409 -0.40809,-2.81978 -5.408986,-1.12562 -11.185884,1.82766 -13.540746,6.7974 -1.480508,2.53508 -1.678933,6.03914 0.528569,8.20978 2.627304,2.74067 6.65983,3.40569 10.290047,3.01407 z m 41.856015,-24.44281 c 2.49557,-0.55099 6.60377,-0.0918 7.9484,-2.50577 0.62097,-5.58971 1.9577,-11.25597 1.09577,-16.88318 -0.75906,-4.28296 -3.75221,-8.15521 -8.03916,-9.30319 -5.70605,-1.97598 -12.62355,0.27107 -15.62712,5.62599 -3.34631,5.70659 -2.43816,12.59631 -2.22501,18.91092 1.12906,2.55998 5.12622,2.69676 7.66001,3.50696 3.03109,0.54377 6.10489,0.92407 9.18711,0.64827 z m -8.05998,-17.30063 c -2.94554,-1.84734 1.83853,-5.74422 2.27634,-1.7219 0.13426,1.20992 -1.14683,2.21698 -2.27634,1.7219 z m 11.62131,-0.33809 c -2.65121,-1.57217 1.72574,-5.12669 2.04728,-1.61381 0.10719,1.14094 -0.91871,2.13608 -2.04728,1.61381 z"
         id="path302-3-6"
         sodipodi:nodetypes="cssscscsssssssscccssssssssscssssscsscsssscssscsscsscsssssssssssssssssscscscssccssssssscssscssssssssssccssccccssssssscssssssssssssssssssssssssscscscccssssssssssscsssssssssssssccssssscsssssssssssscsssssssssssscssssssssssssssscscssssssssssssssssssscccssssscssssssssscsssssssssssscssscssssssssscssscccsssssssccssssccss" /></g></g></svg>
